<?xml version="1.0" encoding="UTF-8" standalone="no"?>
<svg
   id="primary_logo"
   data-name="primary logo"
   viewBox="0 0 82.952411 111.12971"
   version="1.1"
   sodipodi:docname="arxiv.svg"
   inkscape:version="1.4 (86a8ad7, 2024-10-11)"
   width="82.952408"
   height="111.12971"
   xmlns:inkscape="http://www.inkscape.org/namespaces/inkscape"
   xmlns:sodipodi="http://sodipodi.sourceforge.net/DTD/sodipodi-0.dtd"
   xmlns="http://www.w3.org/2000/svg"
   xmlns:svg="http://www.w3.org/2000/svg">
  <defs
     id="defs7" />
  <sodipodi:namedview
     id="namedview7"
     pagecolor="#ffffff"
     bordercolor="#000000"
     borderopacity="0.25"
     inkscape:showpageshadow="2"
     inkscape:pageopacity="0.0"
     inkscape:pagecheckerboard="0"
     inkscape:deskcolor="#d1d1d1"
     inkscape:zoom="4.436257"
     inkscape:cx="15.66636"
     inkscape:cy="19.160296"
     inkscape:window-width="1298"
     inkscape:window-height="1200"
     inkscape:window-x="3106"
     inkscape:window-y="123"
     inkscape:window-maximized="0"
     inkscape:current-layer="primary_logo">
    <inkscape:page
       x="0"
       y="0"
       width="82.952408"
       height="111.12971"
       id="page1"
       margin="0"
       bleed="0" />
  </sodipodi:namedview>
  <path
     d="m 41.154306,55.602192 -32.7409997,38.852 c -1.2860005,1.372 -2.0840005,3.777 -1.3650005,5.5 a 4.705,4.705 0 0 0 4.4000002,2.913998 4.191,4.191 0 0 0 3.16,-1.563 l 40.191,-42.713998 a 4.417,4.417 0 0 0 0.042,-6.042 z"
     fill="#aa142d"
     id="path4"
     clip-path="none" />
  <path
     d="m 41.154306,55.602192 31.187,-38.268 c 1.492,-1.989 2.2,-3.03 1.492,-4.723 a 5.142,5.142 0 0 0 -4.481,-3.161 v 0 a 4.024,4.024 0 0 0 -3.008,1.108 l -38.628,41.767 a 4.769,4.769 0 0 0 0.015,6.53 l 47.786,51.069998 a 3.913,3.913 0 0 0 3.137,1.192 4.394,4.394 0 0 0 4.027,-2.818 c 0.719,-1.727 -0.076,-3.438 -1.4,-5.23 l -40.124,-47.463998"
     fill="#7c7469"
     id="path5"
     clip-path="none" />
  <path
     d="M 54.838306,52.553192 8.1743063,2.125192 c 0,0 -1.7130005,-2.07999996 -3.5240005,-2.12399996 a 4.607,4.607 0 0 0 -4.338,2.78799996 c -0.705,1.692 -0.2,2.88 1.349,5.1 l 40.0930002,48.422"
     fill="#aa142d"
     id="path6"
     clip-path="none"
     inkscape:label="path6" />
</svg>
